<svg width="19" height="20" viewBox="0 0 19 20" fill="none" xmlns="http://www.w3.org/2000/svg">
<path d="M7.35484 4.17727C7.35484 6.20825 5.7084 7.85469 3.67742 7.85469C1.64644 7.85469 0 6.20825 0 4.17727C0 2.14628 1.64644 0.499847 3.67742 0.499847C5.7084 0.499847 7.35484 2.14628 7.35484 4.17727Z" fill="#009500"/>
<path d="M7.35484 15.8224C7.35484 17.8534 5.7084 19.4998 3.67742 19.4998C1.64644 19.4998 0 17.8534 0 15.8224C0 13.7914 1.64644 12.145 3.67742 12.145C5.7084 12.145 7.35484 13.7914 7.35484 15.8224Z" fill="#009500"/>
<path d="M19 4.17727C19 6.20825 17.3536 7.85469 15.3226 7.85469C13.2916 7.85469 11.6452 6.20825 11.6452 4.17727C11.6452 2.14628 13.2916 0.499847 15.3226 0.499847C17.3536 0.499847 19 2.14628 19 4.17727Z" fill="#009500"/>
<path d="M19 15.8224C19 17.8534 17.3536 19.4998 15.3226 19.4998C13.2916 19.4998 11.6452 17.8534 11.6452 15.8224C11.6452 13.7914 13.2916 12.145 15.3226 12.145C17.3536 12.145 19 13.7914 19 15.8224Z" fill="#009500"/>
</svg>
