<svg width="31" height="41" viewBox="0 0 31 41" fill="none" xmlns="http://www.w3.org/2000/svg">
<path fill-rule="evenodd" clip-rule="evenodd" d="M8.75062 37.4765V29.3086C12.5003 31.1362 16.9544 31.1629 20.7904 29.6067C21.055 29.4994 21.2776 29.3664 21.5218 29.3086V37.4765C20.7323 37.2624 16.0051 33.4521 15.125 33.4401C14.5815 33.4326 13.8876 34.0245 13.4491 34.3214C12.8994 34.6936 12.4297 35.012 11.8883 35.3786L8.75062 37.4765ZM15.3376 0H15.6772H15.7669C18.4724 0 21.8859 1.30917 23.9995 2.92851C24.9298 3.64117 26.1754 4.7421 26.8718 5.69642C28.2379 7.56827 28.6822 8.29549 29.4946 10.5596C30.9586 14.6394 30.2546 19.7718 28.0015 23.3984C27.8691 23.6114 27.7414 23.8344 27.6041 24.0357C26.8517 25.1384 25.9174 26.2215 24.9006 27.0552C23.8174 27.9434 23.8759 27.6976 23.8855 28.5866L23.8868 37.957C23.8868 39.5093 24.2732 41 22.5466 41C22.1383 41 19.2868 38.9527 18.7626 38.5976L15.1362 36.1153C14.5763 36.4961 8.18364 41 7.64693 41C6.13392 41 6.30675 39.7591 6.30675 38.5976V27.7871C5.80613 27.6513 4.23777 26.0716 3.87446 25.6132C3.76302 25.4726 3.68887 25.4218 3.57113 25.2807C3.4513 25.137 3.45501 25.1132 3.32855 24.9666L1.9742 22.979C0.529969 20.4342 0 18.1316 0 14.7344C0 11.4403 1.76101 7.20616 3.99971 4.94366L4.9059 4.02235C5.09779 3.82948 5.18526 3.79246 5.37832 3.62133C6.62699 2.51441 8.38271 1.45128 9.96216 0.910323L11.3522 0.480479C13.1492 0.024559 13.7398 0.000902 15.3376 0V0ZM27.8285 15.1347C27.8285 20.4907 25.0277 24.8526 20.4455 27.0942C17.4735 28.548 14.003 28.5958 10.8883 27.5376C8.87942 26.855 7.84971 26.0257 6.48354 24.8048C6.17048 24.5251 6.16173 24.5926 5.87914 24.2176C5.68039 23.9537 5.51394 23.8518 5.31402 23.5904C4.59943 22.6561 3.95995 21.7003 3.46881 20.58C0.814287 14.5252 3.11878 7.59464 8.80358 4.1378C11.6107 2.43085 15.2146 2.02232 18.4481 2.88193C20.3057 3.37573 21.6614 4.19799 23.1789 5.36366L24.9584 7.15958C26.6717 9.40023 27.8285 12.1084 27.8285 15.1347ZM10.012 15.2949H12.6135V20.5801H10.012V15.2949ZM20.1028 20.5801H15.0574V8.88868C15.5499 8.88868 15.8525 8.96859 16.1884 9.42143C16.9388 10.433 15.7693 12.1745 17.3285 12.6677C18.7278 13.1102 21.5218 11.8421 21.5218 14.2539V19.1387C21.5218 19.9408 20.8924 20.5801 20.1028 20.5801ZM12.6135 7.92772V12.8125H9.06598C8.24996 12.8125 7.5681 13.2415 7.5681 14.0938V21.7012C7.5681 22.4222 8.03308 22.9824 8.75062 22.9824H20.5758C20.9608 22.9824 21.5675 22.7452 21.8427 22.5877C22.8619 22.0043 23.8868 20.9499 23.8868 19.5391V13.6133C23.8868 12.9104 23.3958 12.1153 23.0107 11.6204C22.7664 11.3065 22.81 11.3968 22.5298 11.1479C22.2642 10.912 22.3213 10.9327 21.97 10.7557C20.8268 10.1799 20.1816 10.25 18.8414 10.25C18.8414 9.22598 18.4205 8.1203 17.7156 7.46979C16.5045 6.35221 15.4085 6.40625 13.8749 6.40625C13.0376 6.40625 12.6135 7.07221 12.6135 7.92772Z" fill="#009500"/>
</svg>
