<svg width="32" height="36" viewBox="0 0 32 36" fill="none" xmlns="http://www.w3.org/2000/svg">
<path fill-rule="evenodd" clip-rule="evenodd" d="M19.6509 28.5413C21.8439 29.1229 21.5988 29.1216 23.7917 28.5413L23.766 32.2946C21.5052 30.7977 21.9357 30.7977 19.6528 32.2946L19.6509 28.5413ZM21.4296 20.7554C23.2018 20.5679 24.6434 21.9188 24.7983 23.5019C24.9733 25.2897 23.6378 26.7168 22.0328 26.8725C20.2342 27.0471 18.7996 25.7181 18.6425 24.1227C18.4634 22.3041 19.8006 20.9278 21.4296 20.7554ZM26.4811 8.37641C27.1984 8.37746 27.7187 8.41625 28.0594 7.88763C28.3979 7.36213 28.1471 6.76503 27.7506 6.49616C27.1831 6.11137 25.775 6.65133 25.0395 5.14331C23.8792 2.76457 27.4548 1.00334 28.68 3.24238C29.1431 4.08855 28.9652 5.90518 28.9652 7.00453V31.1528H25.8599C25.8599 30.3752 25.8599 29.5976 25.8599 28.82C25.8599 28.1691 25.6957 27.1116 26.0159 26.6422C28.2626 23.3485 25.9458 18.6699 21.7204 18.6699C17.495 18.6699 15.1783 23.3485 17.4249 26.6422C17.7451 27.1116 17.581 28.1691 17.581 28.82C17.581 29.5976 17.581 30.3752 17.5807 31.1528H6.19629V8.37634L26.4811 8.37641ZM23.2949 6.30618C21.5064 6.43155 19.2792 6.3188 17.4427 6.3188C13.556 6.3188 9.66932 6.3188 5.7826 6.3188C4.9017 6.3188 3.878 6.43985 3.14806 6.05915C2.58108 5.76345 2.06555 5.14028 2.06555 4.26046C2.06559 3.3526 2.60007 2.73897 3.19182 2.4369C3.90107 2.07491 4.99225 2.20211 5.85161 2.20211H17.5117C19.3268 2.20211 21.5271 2.0908 23.2949 2.21478C22.5566 4.08743 22.5568 4.43398 23.2949 6.30618ZM4.12669 8.37658C4.12669 14.7338 4.12669 21.0909 4.12669 27.448C4.12669 28.9359 4.03445 30.7331 4.13009 32.1827C4.18481 33.0126 4.68654 33.2133 5.50544 33.212L17.5807 33.2106C17.5807 33.8474 17.4868 34.5399 17.849 34.9344C18.6087 35.7619 19.6216 34.8104 20.4812 34.2419C20.8537 33.9956 21.3479 33.6291 21.7204 33.4408C23.1747 34.176 24.5848 35.9217 25.5582 34.9686C25.9628 34.5723 25.8602 33.8645 25.8602 33.2106C26.7111 33.2106 27.562 33.2106 28.413 33.2106C29.1446 33.2106 30.2365 33.3661 30.7001 32.9454C31.1971 32.4946 31.0348 31.4825 31.0348 30.7409V7.89638C31.0348 5.0486 31.6523 1.58184 28.2993 0.392944C27.1751 -0.00569771 24.7822 0.144334 23.4453 0.144334H8.05943C5.00438 0.144334 1.70056 -0.498909 0.335227 2.61834C-0.716161 5.01884 0.74846 8.24294 4.12669 8.37658ZM9.04213 14.6043C8.13332 14.8493 8.14683 15.7716 8.47072 16.2022C8.90889 16.7847 9.91196 16.6086 10.6812 16.6086C12.4348 16.6086 25.6301 16.7022 26.1613 16.5609C26.8184 16.3861 27.1308 15.5425 26.6908 14.9575C26.2526 14.3749 25.2495 14.551 24.4802 14.551C22.7254 14.551 9.5844 14.4582 9.04213 14.6043ZM9.04213 10.4882C8.13332 10.7332 8.14683 11.6555 8.47072 12.086C8.90889 12.6686 9.91196 12.4925 10.6812 12.4925C12.4348 12.4925 25.6301 12.5861 26.1613 12.4448C26.8184 12.27 27.1308 11.4264 26.6908 10.8413C26.2526 10.2588 25.2495 10.4349 24.4802 10.4349C22.7254 10.4349 9.5844 10.342 9.04213 10.4882ZM8.291 19.9018C8.49689 21.0234 10.0862 20.7247 11.5782 20.7247C12.7218 20.7247 14.6977 21.0498 14.4539 19.5111C14.2724 18.3656 12.6552 18.6672 11.1642 18.6672C10.0346 18.6672 8.00549 18.3461 8.291 19.9018ZM8.291 24.0179C8.4009 24.6166 8.84865 24.8351 9.50548 24.8427C10.1935 24.8506 10.8892 24.8409 11.5782 24.8409C12.7218 24.8409 14.6977 25.166 14.4539 23.6272C14.2724 22.4818 12.6552 22.7833 11.1642 22.7833C10.0346 22.7833 8.00549 22.4623 8.291 24.0179Z" fill="#009500"/>
</svg>
