<svg width="41" height="29" viewBox="0 0 41 29" fill="none" xmlns="http://www.w3.org/2000/svg">
<path fill-rule="evenodd" clip-rule="evenodd" d="M33.3864 25.692C29.7124 25.692 29.8165 20.6578 33.3065 20.6578C35.3489 20.6578 36.5415 23.3241 35.0068 24.9159C34.6812 25.2535 34.0054 25.692 33.3864 25.692ZM0 11.3497V11.078C0.0337378 10.7848 0.178013 10.4896 0.45499 10.2454C0.982118 9.78062 2.78 9.95004 3.75398 9.95004V7.63272H2.95527C1.75359 7.63272 1.21317 6.26135 2.13227 5.45091C2.54367 5.08817 3.16023 5.15555 3.75398 5.15555V1.63956C3.75398 0.822529 4.36502 0.36103 5.1917 0.36103H26.9966C27.8372 0.36103 28.4343 0.891304 28.4343 1.47976V6.7537H32.9071C33.6349 6.7537 34.2915 7.78316 34.6432 8.13329C34.8235 8.31278 34.9443 8.4322 35.1236 8.61157C35.4892 8.97733 35.7958 9.28524 36.162 9.65039C36.5289 10.0163 36.7555 10.3264 37.1203 10.6893C37.7182 11.2839 38.6649 12.1278 39.1371 12.7469C39.4366 13.1394 39.7948 13.445 40.1555 13.8056C40.5096 14.1595 40.8943 14.3939 40.8943 15.0642V23.4546C40.8943 25.0177 38.8067 24.6532 37.9391 24.6532C37.8133 24.9154 37.737 25.1421 37.5941 25.4268C37.4547 25.7045 37.3683 25.8371 37.2061 26.0774C36.9688 26.429 36.5147 26.8945 36.1833 27.1317C35.4128 27.6834 34.3873 28.1692 33.0669 28.1692C32.1697 28.1692 30.7456 27.6578 30.0923 27.0698C29.3653 26.4156 28.6666 25.6504 28.4343 24.6532H17.0127C16.3871 27.3398 12.3284 29.54 9.21758 27.098C8.59272 26.6074 8.1738 26.0681 7.82652 25.3733C7.70682 25.1338 7.62262 24.8923 7.50795 24.6532C6.09595 24.6532 3.75398 25.0869 3.75398 23.3747V12.4272H1.27795C0.551133 12.4272 0.0663715 11.9255 0 11.3497H0ZM9.74434 23.2148C9.74434 19.8767 14.7763 19.7051 14.7763 23.2948C14.7763 25.3961 12.0319 26.5667 10.4402 24.9159C10.0759 24.538 9.74434 23.9261 9.74434 23.2148ZM28.4343 21.5368V16.3427H38.4982V22.1761H38.0189C37.9739 21.6345 37.6676 21.0086 37.4274 20.6103C35.3893 17.23 30.5586 17.4883 28.7788 20.8426L28.5594 21.3423C28.4629 21.5337 28.5321 21.4243 28.4343 21.5368ZM28.4343 9.23087H32.1883C32.4877 9.23087 35.2101 12.2141 35.6827 12.6869C36.0126 13.017 36.5896 13.52 36.8209 13.8656H28.4343V9.23087ZM6.23001 2.8382H26.0382L25.9583 22.1761H17.0926C17.0524 20.374 14.7631 18.1806 12.3002 18.1806C10.5105 18.1806 8.79105 19.2454 8.04023 20.5511C7.83069 20.9154 7.43905 21.6838 7.42809 22.1761H6.23001V12.4272H12.3801C14.0115 12.4272 14.1159 9.95004 12.3002 9.95004H6.23001V7.63272H13.2587C14.89 7.63272 14.9945 5.15555 13.1789 5.15555H6.23001V2.8382Z" fill="#009500"/>
</svg>
