<svg width="38" height="31" viewBox="0 0 38 31" fill="none" xmlns="http://www.w3.org/2000/svg">
<g clip-path="url(#clip0_12375_1210)">
<path fill-rule="evenodd" clip-rule="evenodd" d="M14.6211 15.338C14.6211 16.2213 14.9646 16.3061 15.6787 17.0156L24.3438 25.6617C24.0782 25.7321 24.1819 25.7304 23.982 25.8922L22.9369 26.6236C22.8121 26.6973 22.7155 26.7708 22.5779 26.8569C19.05 29.0623 14.3851 29.227 10.4948 27.6967L9.24468 27.0952C9.08648 27.006 9.02257 26.9621 8.87433 26.8733C8.06311 26.3867 6.44936 25.2411 5.85173 24.4934L5.03599 23.534C4.42031 22.7151 4.101 22.2339 3.63671 21.311C3.08305 20.2104 2.6171 18.9484 2.4526 17.6944L2.29816 14.3768C2.33141 12.8571 3.2042 10.2676 4.0215 8.93619L6.40414 5.92042C7.46704 5.03793 8.34879 4.26592 9.64676 3.68536C10.3798 3.35745 10.4611 3.26197 11.3083 2.97654C13.338 2.29276 15.4726 2.06694 17.6424 2.38122C21.9425 3.00399 23.8534 5.17925 24.3438 5.30932C24.1122 5.65289 16.6115 13.0286 15.7158 13.9185C15.4033 14.229 14.6211 14.8252 14.6211 15.338ZM0 14.8956C0 17.7293 0.311562 19.7233 1.48436 22.0484C2.00758 23.0857 2.89256 24.567 3.69246 25.4589L6.09619 27.7162C6.29535 27.865 6.45434 27.9627 6.65893 28.1158C7.48478 28.734 8.18961 29.0646 9.05468 29.4962C14.1662 32.0468 20.5418 31.264 25.1814 27.8213C25.594 27.5151 25.8928 27.2363 26.285 26.9268C27.868 25.6775 26.7942 24.8887 26.1065 24.2053C25.2018 23.3065 17.5976 15.8275 17.3672 15.4855C17.5986 15.1421 25.163 7.70311 26.0693 6.80257C26.794 6.08251 27.8497 5.34152 26.3263 4.07691C26.1962 3.9689 26.2017 3.9954 26.0723 3.88682C25.9585 3.7913 25.9203 3.73059 25.8066 3.63469C23.3062 1.52614 19.626 0 16.3281 0C13.5419 0 11.3927 0.3071 9.10412 1.45021C7.32157 2.34056 6.76009 2.64747 5.13946 4.07401C4.30559 4.80804 4.53275 4.61983 3.72829 5.47404C3.05588 6.18803 1.91235 7.99186 1.49754 8.86197C1.06894 9.76107 0.776834 10.5623 0.475912 11.6077C0.221388 12.492 0 13.9787 0 14.8956H0ZM29.595 21.0343L34.5117 21.0161C34.4134 21.4355 33.9022 22.2209 33.6643 22.6076C33.3677 23.0897 32.7021 23.8688 32.6562 24.0394L29.595 21.0343ZM38 14.8893V16.1241C37.9543 17.2979 37.7774 18.4666 37.4656 19.6002C36.7386 22.243 35.5762 24.0119 33.8966 26.0092C32.5915 27.5612 31.8595 26.4555 31.0049 25.6064L22.544 17.2C21.7771 16.4381 21.3008 16.2573 21.3008 15.338C21.3008 14.8129 22.2138 14.0991 22.544 13.771L31.0049 5.36463C31.8281 4.5467 32.6225 3.36787 33.9295 5.00286C34.2411 5.39257 34.5217 5.6894 34.8298 6.09938C35.1368 6.50774 35.3675 6.83425 35.6556 7.26991C35.9378 7.69658 36.1408 8.10403 36.3672 8.55388C36.8232 9.45997 37.1947 10.3482 37.4812 11.4291C37.7804 12.5576 37.9545 13.7208 38 14.8893ZM25.1601 16.5916H35.6992C35.6992 16.8803 35.6092 17.4555 35.5582 17.7051C35.4811 18.0825 35.4122 18.4454 35.3281 18.8038C33.2747 18.8038 31.2214 18.8038 29.168 18.8038C27.0298 18.8038 27.5659 19.0188 26.7002 18.1586C26.3104 17.7713 25.4184 16.9748 25.1601 16.5916ZM35.3281 12.1672C35.45 12.6872 35.6992 13.8751 35.6992 14.3794H25.1601C25.4267 13.9839 26.5588 12.97 27.0333 12.4797C27.5336 11.9629 27.7407 12.1672 29.0938 12.1672C31.1719 12.1672 33.25 12.1672 35.3281 12.1672ZM32.6379 6.91338C32.7072 7.12119 33.3482 7.84964 33.6643 8.36348C33.9022 8.7501 34.4134 9.53555 34.5117 9.95498H29.6133L32.6379 6.91338Z" fill="#009500"/>
</g>
<defs>
<clipPath id="clip0_12375_1210">
<rect width="38" height="31" fill="white"/>
</clipPath>
</defs>
</svg>
