<svg width="176" height="29" viewBox="0 0 176 29" fill="none" xmlns="http://www.w3.org/2000/svg">
<path d="M4.898 22H0.093L8.959 0.299999H13.981L22.816 22H18.011L16.43 17.939H6.51L4.898 22ZM10.974 6.314L7.967 14.095H14.973L11.935 6.314C11.7283 5.73533 11.5733 5.167 11.47 4.609C11.346 5.24967 11.1807 5.818 10.974 6.314ZM29.055 22H24.746V7.12H36.092V10.747H29.055V22ZM42.2123 9.29C43.4316 7.554 45.2296 6.686 47.6063 6.686C49.859 6.686 51.626 7.461 52.9073 9.011C54.2093 10.5403 54.8603 12.39 54.8603 14.56C54.8603 16.73 54.2093 18.59 52.9073 20.14C51.626 21.6693 49.859 22.434 47.6063 22.434C45.5603 22.434 43.9276 21.7623 42.7083 20.419V28.82H38.3993V7.12H42.2123V9.29ZM49.4043 17.598C50.107 16.7713 50.4583 15.7587 50.4583 14.56C50.4583 13.3613 50.107 12.359 49.4043 11.553C48.7016 10.7263 47.751 10.313 46.5523 10.313C45.6636 10.313 44.868 10.5507 44.1653 11.026C43.4833 11.5013 42.9873 12.0903 42.6773 12.793V16.327C42.9873 17.0297 43.4833 17.6187 44.1653 18.094C44.868 18.5693 45.6636 18.807 46.5523 18.807C47.751 18.807 48.7016 18.404 49.4043 17.598ZM59.2335 20.357C57.6422 18.9723 56.8465 17.04 56.8465 14.56C56.8465 12.08 57.6422 10.1477 59.2335 8.763C60.8248 7.37833 62.7675 6.686 65.0615 6.686C67.3762 6.686 69.3188 7.37833 70.8895 8.763C72.4808 10.1477 73.2765 12.08 73.2765 14.56C73.2765 17.04 72.4808 18.9723 70.8895 20.357C69.3188 21.7417 67.3762 22.434 65.0615 22.434C62.7675 22.434 60.8248 21.7417 59.2335 20.357ZM67.8825 17.474C68.5645 16.7093 68.9055 15.738 68.9055 14.56C68.9055 13.382 68.5645 12.421 67.8825 11.677C67.2005 10.9123 66.2602 10.53 65.0615 10.53C63.8628 10.53 62.9225 10.9123 62.2405 11.677C61.5792 12.421 61.2485 13.382 61.2485 14.56C61.2485 15.738 61.5792 16.7093 62.2405 17.474C62.9225 18.218 63.8628 18.59 65.0615 18.59C66.2602 18.59 67.2005 18.218 67.8825 17.474ZM81.2357 22H76.5857V0.299999H91.7447V4.485H81.2357V22ZM103.769 18.156C103.769 18.8173 104.12 19.148 104.823 19.148C105.112 19.148 105.381 19.1067 105.629 19.024V21.845C104.843 22.1343 104.048 22.279 103.242 22.279C101.671 22.279 100.576 21.721 99.9556 20.605C98.4056 21.8243 96.618 22.434 94.5926 22.434C93.1253 22.434 91.8853 22.031 90.8726 21.225C89.8806 20.3983 89.3846 19.2823 89.3846 17.877C89.3846 16.699 89.736 15.7173 90.4386 14.932C91.1413 14.1467 91.9576 13.6197 92.8876 13.351C93.8176 13.0617 94.8303 12.917 95.9256 12.917C97.145 12.917 98.323 13.0513 99.4596 13.32V12.793C99.4596 12.0283 99.16 11.4187 98.5606 10.964C97.9613 10.5093 97.0933 10.282 95.9566 10.282C94.3033 10.282 92.5466 10.654 90.6866 11.398V7.678C92.6706 7.01667 94.5926 6.686 96.4526 6.686C101.33 6.686 103.769 8.92833 103.769 13.413V18.156ZM96.9176 15.49C96.029 15.49 95.285 15.6553 94.6856 15.986C94.0863 16.3167 93.7866 16.8333 93.7866 17.536C93.7866 18.0733 94.0036 18.5177 94.4376 18.869C94.8923 19.1997 95.4503 19.365 96.1116 19.365C97.4136 19.365 98.5296 18.962 99.4596 18.156V15.831C98.509 15.6037 97.6616 15.49 96.9176 15.49ZM111.75 9.29C112.97 7.554 114.768 6.686 117.144 6.686C119.397 6.686 121.164 7.461 122.445 9.011C123.747 10.5403 124.398 12.39 124.398 14.56C124.398 16.73 123.747 18.59 122.445 20.14C121.164 21.6693 119.397 22.434 117.144 22.434C115.098 22.434 113.466 21.7623 112.246 20.419V28.82H107.937V7.12H111.75V9.29ZM118.942 17.598C119.645 16.7713 119.996 15.7587 119.996 14.56C119.996 13.3613 119.645 12.359 118.942 11.553C118.24 10.7263 117.289 10.313 116.09 10.313C115.202 10.313 114.406 10.5507 113.703 11.026C113.021 11.5013 112.525 12.0903 112.215 12.793V16.327C112.525 17.0297 113.021 17.6187 113.703 18.094C114.406 18.5693 115.202 18.807 116.09 18.807C117.289 18.807 118.24 18.404 118.942 17.598ZM140.521 18.156C140.521 18.8173 140.872 19.148 141.575 19.148C141.864 19.148 142.133 19.1067 142.381 19.024V21.845C141.595 22.1343 140.8 22.279 139.994 22.279C138.423 22.279 137.328 21.721 136.708 20.605C135.158 21.8243 133.37 22.434 131.345 22.434C129.877 22.434 128.637 22.031 127.625 21.225C126.633 20.3983 126.137 19.2823 126.137 17.877C126.137 16.699 126.488 15.7173 127.191 14.932C127.893 14.1467 128.71 13.6197 129.64 13.351C130.57 13.0617 131.582 12.917 132.678 12.917C133.897 12.917 135.075 13.0513 136.212 13.32V12.793C136.212 12.0283 135.912 11.4187 135.313 10.964C134.713 10.5093 133.845 10.282 132.709 10.282C131.055 10.282 129.299 10.654 127.439 11.398V7.678C129.423 7.01667 131.345 6.686 133.205 6.686C138.082 6.686 140.521 8.92833 140.521 13.413V18.156ZM133.67 15.49C132.781 15.49 132.037 15.6553 131.438 15.986C130.838 16.3167 130.539 16.8333 130.539 17.536C130.539 18.0733 130.756 18.5177 131.19 18.869C131.644 19.1997 132.202 19.365 132.864 19.365C134.166 19.365 135.282 18.962 136.212 18.156V15.831C135.261 15.6037 134.414 15.49 133.67 15.49ZM148.998 22H144.689V7.12H148.998V12.762H155.012V7.12H159.321V22H155.012V16.358H148.998V22ZM170.663 22H166.385V10.747H161.642V7.12H175.406V10.747H170.663V22Z" fill="#BCBCBC"/>
</svg>
