<svg width="227" height="37" viewBox="0 0 227 37" fill="none" xmlns="http://www.w3.org/2000/svg">
<path d="M6.32 28H0.12L11.56 -1.90735e-06H18.04L29.44 28H23.24L21.2 22.76H8.4L6.32 28ZM14.16 7.76L10.28 17.8H19.32L15.4 7.76C15.1333 7.01333 14.9333 6.28 14.8 5.56C14.64 6.38667 14.4267 7.12 14.16 7.76ZM37.4903 28H31.9303V8.8H46.5703V13.48H37.4903V28ZM54.4675 11.6C56.0408 9.36 58.3608 8.24 61.4275 8.24C64.3342 8.24 66.6142 9.24 68.2675 11.24C69.9475 13.2133 70.7875 15.6 70.7875 18.4C70.7875 21.2 69.9475 23.6 68.2675 25.6C66.6142 27.5733 64.3342 28.56 61.4275 28.56C58.7875 28.56 56.6808 27.6933 55.1075 25.96V36.8H49.5475V8.8H54.4675V11.6ZM63.7475 22.32C64.6542 21.2533 65.1075 19.9467 65.1075 18.4C65.1075 16.8533 64.6542 15.56 63.7475 14.52C62.8408 13.4533 61.6142 12.92 60.0675 12.92C58.9208 12.92 57.8942 13.2267 56.9875 13.84C56.1075 14.4533 55.4675 15.2133 55.0675 16.12V20.68C55.4675 21.5867 56.1075 22.3467 56.9875 22.96C57.8942 23.5733 58.9208 23.88 60.0675 23.88C61.6142 23.88 62.8408 23.36 63.7475 22.32ZM76.4303 25.88C74.377 24.0933 73.3503 21.6 73.3503 18.4C73.3503 15.2 74.377 12.7067 76.4303 10.92C78.4836 9.13333 80.9903 8.24 83.9503 8.24C86.937 8.24 89.4436 9.13333 91.4703 10.92C93.5236 12.7067 94.5503 15.2 94.5503 18.4C94.5503 21.6 93.5236 24.0933 91.4703 25.88C89.4436 27.6667 86.937 28.56 83.9503 28.56C80.9903 28.56 78.4836 27.6667 76.4303 25.88ZM87.5903 22.16C88.4703 21.1733 88.9103 19.92 88.9103 18.4C88.9103 16.88 88.4703 15.64 87.5903 14.68C86.7103 13.6933 85.497 13.2 83.9503 13.2C82.4036 13.2 81.1903 13.6933 80.3103 14.68C79.457 15.64 79.0303 16.88 79.0303 18.4C79.0303 19.92 79.457 21.1733 80.3103 22.16C81.1903 23.12 82.4036 23.6 83.9503 23.6C85.497 23.6 86.7103 23.12 87.5903 22.16ZM104.82 28H98.8203V-1.90735e-06H118.38V5.4H104.82V28ZM133.895 23.04C133.895 23.8933 134.348 24.32 135.255 24.32C135.628 24.32 135.975 24.2667 136.295 24.16V27.8C135.282 28.1733 134.255 28.36 133.215 28.36C131.188 28.36 129.775 27.64 128.975 26.2C126.975 27.7733 124.668 28.56 122.055 28.56C120.162 28.56 118.562 28.04 117.255 27C115.975 25.9333 115.335 24.4933 115.335 22.68C115.335 21.16 115.788 19.8933 116.695 18.88C117.602 17.8667 118.655 17.1867 119.855 16.84C121.055 16.4667 122.362 16.28 123.775 16.28C125.348 16.28 126.868 16.4533 128.335 16.8V16.12C128.335 15.1333 127.948 14.3467 127.175 13.76C126.402 13.1733 125.282 12.88 123.815 12.88C121.682 12.88 119.415 13.36 117.015 14.32V9.52C119.575 8.66667 122.055 8.24 124.455 8.24C130.748 8.24 133.895 11.1333 133.895 16.92V23.04ZM125.055 19.6C123.908 19.6 122.948 19.8133 122.175 20.24C121.402 20.6667 121.015 21.3333 121.015 22.24C121.015 22.9333 121.295 23.5067 121.855 23.96C122.442 24.3867 123.162 24.6 124.015 24.6C125.695 24.6 127.135 24.08 128.335 23.04V20.04C127.108 19.7467 126.015 19.6 125.055 19.6ZM144.194 11.6C145.767 9.36 148.087 8.24 151.154 8.24C154.061 8.24 156.341 9.24 157.994 11.24C159.674 13.2133 160.514 15.6 160.514 18.4C160.514 21.2 159.674 23.6 157.994 25.6C156.341 27.5733 154.061 28.56 151.154 28.56C148.514 28.56 146.407 27.6933 144.834 25.96V36.8H139.274V8.8H144.194V11.6ZM153.474 22.32C154.381 21.2533 154.834 19.9467 154.834 18.4C154.834 16.8533 154.381 15.56 153.474 14.52C152.567 13.4533 151.341 12.92 149.794 12.92C148.647 12.92 147.621 13.2267 146.714 13.84C145.834 14.4533 145.194 15.2133 144.794 16.12V20.68C145.194 21.5867 145.834 22.3467 146.714 22.96C147.621 23.5733 148.647 23.88 149.794 23.88C151.341 23.88 152.567 23.36 153.474 22.32ZM181.317 23.04C181.317 23.8933 181.77 24.32 182.677 24.32C183.05 24.32 183.397 24.2667 183.717 24.16V27.8C182.704 28.1733 181.677 28.36 180.637 28.36C178.61 28.36 177.197 27.64 176.397 26.2C174.397 27.7733 172.09 28.56 169.477 28.56C167.584 28.56 165.984 28.04 164.677 27C163.397 25.9333 162.757 24.4933 162.757 22.68C162.757 21.16 163.21 19.8933 164.117 18.88C165.024 17.8667 166.077 17.1867 167.277 16.84C168.477 16.4667 169.784 16.28 171.197 16.28C172.77 16.28 174.29 16.4533 175.757 16.8V16.12C175.757 15.1333 175.37 14.3467 174.597 13.76C173.824 13.1733 172.704 12.88 171.237 12.88C169.104 12.88 166.837 13.36 164.437 14.32V9.52C166.997 8.66667 169.477 8.24 171.877 8.24C178.17 8.24 181.317 11.1333 181.317 16.92V23.04ZM172.477 19.6C171.33 19.6 170.37 19.8133 169.597 20.24C168.824 20.6667 168.437 21.3333 168.437 22.24C168.437 22.9333 168.717 23.5067 169.277 23.96C169.864 24.3867 170.584 24.6 171.437 24.6C173.117 24.6 174.557 24.08 175.757 23.04V20.04C174.53 19.7467 173.437 19.6 172.477 19.6ZM192.256 28H186.696V8.8H192.256V16.08H200.016V8.8H205.576V28H200.016V20.72H192.256V28ZM220.21 28H214.69V13.48H208.57V8.8H226.33V13.48H220.21V28Z" fill="#FF8803"/>
</svg>
