<svg width="28" height="43" viewBox="0 0 28 43" fill="none" xmlns="http://www.w3.org/2000/svg">
<path fill-rule="evenodd" clip-rule="evenodd" d="M12.4444 13.8214V15.4415C5.44898 16.2063 0 22.0697 0 29.1786C0 36.8064 6.2736 43 14 43C21.7264 43 28 36.8064 28 29.1786C28 22.0698 22.551 16.2067 15.5556 15.4415V13.8214H22.5556C23.2493 13.8214 23.8608 13.3669 24.0521 12.708L27.1632 1.95806C27.2969 1.49425 27.2021 0.995122 26.908 0.611195C26.6139 0.225899 26.1552 0 25.6667 0H16.3333C15.6396 0 15.0281 0.454543 14.8368 1.11343L14 4.00829L13.1632 1.11343C12.9719 0.454587 12.3604 0 11.6666 0H2.33331C1.84476 0 1.38611 0.225899 1.09197 0.611195C0.797875 0.995122 0.703085 1.49418 0.836765 1.95806L3.94788 12.708C4.13919 13.3669 4.75065 13.8214 5.44441 13.8214H12.4444ZM14 18.4286C20.0091 18.4286 24.8889 23.2461 24.8889 29.1785C24.8889 35.1109 20.0091 39.9285 14 39.9285C7.99093 39.9285 3.11111 35.1109 3.11111 29.1785C3.11111 23.2461 7.99093 18.4286 14 18.4286ZM14 21.5C9.70658 21.5 6.22222 24.9399 6.22222 29.1785C6.22222 33.4172 9.70658 36.8571 14 36.8571C18.2934 36.8571 21.7778 33.4172 21.7778 29.1785C21.7778 24.9399 18.2934 21.5 14 21.5ZM14 24.5714C16.576 24.5714 18.6667 26.6354 18.6667 29.1785C18.6667 31.7217 16.576 33.7857 14 33.7857C11.424 33.7857 9.33333 31.7217 9.33333 29.1785C9.33333 26.6354 11.424 24.5714 14 24.5714ZM12.3823 9.59869L10.4938 3.07193H4.39582L6.61698 10.7505H12.0489L12.3819 9.59869H12.3823ZM23.6045 3.07193L21.3834 10.7505H15.2854L17.5066 3.07193H23.6045Z" fill="white"/>
</svg>
