<svg width="34" height="45" viewBox="0 0 34 45" fill="none" xmlns="http://www.w3.org/2000/svg">
<path d="M23.2351 1H10.9735C10.5331 1 10.175 1.35354 10.175 1.79093V11.6256H10.0714C3.49747 11.6256 1 16.9228 1 23.4349V40.4435C1 42.4043 2.61095 44 4.59154 44H29.4095C31.389 44 33 42.4043 33 40.4435V23.4335C33 16.9567 30.5594 11.6866 24.0339 11.6297V1.79065C24.0333 1.35326 23.6761 1 23.2351 1ZM11.7715 2.58127H22.4365V11.6257H17.104H11.7715V2.58127ZM31.402 23.434V40.4426C31.402 41.5313 30.5072 42.4177 29.4081 42.4177H4.59014C3.48983 42.4177 2.59501 41.5313 2.59501 40.4426L2.59557 23.434C2.59557 17.7949 4.37687 13.2059 10.0706 13.2059H23.9279C29.621 13.2071 31.402 17.7949 31.402 23.434Z" fill="white"/>
<path d="M19.6557 4.85674C19.2152 4.85674 18.8571 5.21028 18.8571 5.64767V8.60067C18.8571 9.03805 19.2146 9.3916 19.6557 9.3916C20.0961 9.3916 20.4542 9.03805 20.4542 8.60067V5.64767C20.4542 5.21028 20.0961 4.85674 19.6557 4.85674Z" fill="white"/>
<path d="M14.5524 4.85674C14.1119 4.85674 13.7539 5.21028 13.7539 5.64767V8.60067C13.7539 9.03805 14.1114 9.3916 14.5524 9.3916C14.9928 9.3916 15.3509 9.03805 15.3509 8.60067V5.64767C15.3503 5.21028 14.9928 4.85674 14.5524 4.85674Z" fill="white"/>
<path d="M22.26 24.287C22.4165 24.442 22.6209 24.5203 22.8258 24.5203C23.0296 24.5203 23.2328 24.4436 23.3893 24.2903C23.7017 23.9819 23.7028 23.4822 23.3915 23.1723L17.7235 17.5304C17.5731 17.3815 17.3699 17.2971 17.1577 17.2971C16.9456 17.2971 16.7418 17.381 16.592 17.5304L10.9233 23.1723C10.6121 23.4822 10.6137 23.9819 10.9256 24.2903C11.2385 24.5986 11.743 24.5969 12.0554 24.287L16.3597 20.0036V23.9296L10.9232 29.3397C10.612 29.6497 10.6136 30.1494 10.9255 30.4577C11.2384 30.766 11.7429 30.7644 12.0553 30.4544L16.3596 26.171V30.0959L10.9232 35.5066C10.6119 35.8165 10.6136 36.3162 10.9254 36.6246C11.2389 36.934 11.7445 36.9312 12.0552 36.6212L16.3595 32.3373V38.0183C16.3595 38.4556 16.717 38.8092 17.158 38.8092C17.5985 38.8092 17.9565 38.4556 17.9565 38.0183V32.3394L22.2602 36.6234C22.4162 36.7784 22.6211 36.8567 22.826 36.8567C23.0298 36.8567 23.233 36.78 23.3895 36.6267C23.7019 36.3183 23.703 35.8186 23.3917 35.5087L17.9564 30.098V26.1731L22.2602 30.4565C22.4166 30.6115 22.621 30.6898 22.8259 30.6898C23.0297 30.6898 23.233 30.6131 23.3894 30.4598C23.7018 30.1515 23.7029 29.6518 23.3917 29.3418L17.9564 23.9317V20.0057L22.26 24.287Z" fill="white"/>
<path d="M23.2351 1H10.9735C10.5331 1 10.175 1.35354 10.175 1.79093V11.6256H10.0714C3.49747 11.6256 1 16.9228 1 23.4349V40.4435C1 42.4043 2.61095 44 4.59154 44H29.4095C31.389 44 33 42.4043 33 40.4435V23.4335C33 16.9567 30.5594 11.6866 24.0339 11.6297V1.79065C24.0333 1.35326 23.6761 1 23.2351 1ZM11.7715 2.58127H22.4365V11.6257H17.104H11.7715V2.58127ZM31.402 23.434V40.4426C31.402 41.5313 30.5072 42.4177 29.4081 42.4177H4.59014C3.48983 42.4177 2.59501 41.5313 2.59501 40.4426L2.59557 23.434C2.59557 17.7949 4.37687 13.2059 10.0706 13.2059H23.9279C29.621 13.2071 31.402 17.7949 31.402 23.434Z" stroke="white"/>
<path d="M19.6557 4.85674C19.2152 4.85674 18.8571 5.21028 18.8571 5.64767V8.60067C18.8571 9.03805 19.2146 9.3916 19.6557 9.3916C20.0961 9.3916 20.4542 9.03805 20.4542 8.60067V5.64767C20.4542 5.21028 20.0961 4.85674 19.6557 4.85674Z" stroke="white"/>
<path d="M14.5524 4.85674C14.1119 4.85674 13.7539 5.21028 13.7539 5.64767V8.60067C13.7539 9.03805 14.1114 9.3916 14.5524 9.3916C14.9928 9.3916 15.3509 9.03805 15.3509 8.60067V5.64767C15.3503 5.21028 14.9928 4.85674 14.5524 4.85674Z" stroke="white"/>
<path d="M22.26 24.287C22.4165 24.442 22.6209 24.5203 22.8258 24.5203C23.0296 24.5203 23.2328 24.4436 23.3893 24.2903C23.7017 23.9819 23.7028 23.4822 23.3915 23.1723L17.7235 17.5304C17.5731 17.3815 17.3699 17.2971 17.1577 17.2971C16.9456 17.2971 16.7418 17.381 16.592 17.5304L10.9233 23.1723C10.6121 23.4822 10.6137 23.9819 10.9256 24.2903C11.2385 24.5986 11.743 24.5969 12.0554 24.287L16.3597 20.0036V23.9296L10.9232 29.3397C10.612 29.6497 10.6136 30.1494 10.9255 30.4577C11.2384 30.766 11.7429 30.7644 12.0553 30.4544L16.3596 26.171V30.0959L10.9232 35.5066C10.6119 35.8165 10.6136 36.3162 10.9254 36.6246C11.2389 36.934 11.7445 36.9312 12.0552 36.6212L16.3595 32.3373V38.0183C16.3595 38.4556 16.717 38.8092 17.158 38.8092C17.5985 38.8092 17.9565 38.4556 17.9565 38.0183V32.3394L22.2602 36.6234C22.4162 36.7784 22.6211 36.8567 22.826 36.8567C23.0298 36.8567 23.233 36.78 23.3895 36.6267C23.7019 36.3183 23.703 35.8186 23.3917 35.5087L17.9564 30.098V26.1731L22.2602 30.4565C22.4166 30.6115 22.621 30.6898 22.8259 30.6898C23.0297 30.6898 23.233 30.6131 23.3894 30.4598C23.7018 30.1515 23.7029 29.6518 23.3917 29.3418L17.9564 23.9317V20.0057L22.26 24.287Z" stroke="white"/>
</svg>
