<svg width="38" height="44" viewBox="0 0 38 44" fill="none" xmlns="http://www.w3.org/2000/svg">
<path d="M20.9173 25.6135V31.0757H17.0023V25.6135M20.9173 25.6135C19.7624 26.4411 18.96 26.9011 18.96 26.9011C18.96 26.9011 18.1568 26.4411 17.0023 25.6135M20.9173 25.6135C22.7485 24.3077 25.4639 22.101 27.3582 19.3607M17.0023 25.6135C15.1621 24.2986 12.4099 22.0642 10.5246 19.2962M8.35075 4.14247C8.35075 3.05737 8.36865 2.24809 8.41379 2H29.5048C29.5499 2.24846 29.5678 3.05737 29.5678 4.14247M8.35075 4.14247C8.32352 7.22258 8.41367 12.51 8.41367 13.2824C8.41367 15.4435 9.28876 17.4847 10.5246 19.2962M8.35075 4.14247L2 4.14156C2 10.8271 5.48198 16.602 10.5246 19.2962M29.5678 4.14247C29.5951 7.22258 29.5047 12.5102 29.5047 13.2825C29.5047 15.4711 28.612 17.5401 27.3582 19.3607M29.5678 4.14247L36 4.14247C36 10.8827 32.4639 16.6852 27.3582 19.3607M10.374 35.3336C9.59549 35.3336 8.96432 35.977 8.96432 36.7703L8.9647 42H28.6982V36.7699C28.6982 35.9766 28.0674 35.3336 27.2889 35.3336H10.374ZM15.7299 31.0808C14.422 31.0808 13.3619 32.1614 13.3619 33.4946V35.3339H24.3V33.4946C24.3 32.1614 23.2398 31.0808 21.932 31.0808H15.7299Z" stroke="white" stroke-width="3" stroke-miterlimit="10" stroke-linecap="round" stroke-linejoin="round"/>
</svg>
